<svg width="1194" height="339" viewBox="0 0 1194 339" fill="none" xmlns="http://www.w3.org/2000/svg">
<path d="M191.455 273.884C181.71 273.884 173.027 272.193 165.403 268.812C157.78 265.366 151.748 260.295 147.307 253.599C142.932 246.838 140.744 238.42 140.744 228.344C140.744 219.859 142.302 212.733 145.418 206.966C148.533 201.199 152.776 196.559 158.145 193.045C163.514 189.532 169.613 186.881 176.44 185.091C183.334 183.301 190.56 182.042 198.116 181.312C206.999 180.384 214.158 179.523 219.594 178.727C225.029 177.866 228.973 176.606 231.426 174.949C233.879 173.292 235.105 170.839 235.105 167.591V166.994C235.105 160.697 233.116 155.825 229.139 152.378C225.228 148.931 219.66 147.207 212.435 147.207C204.812 147.207 198.746 148.898 194.239 152.278C189.731 155.593 186.748 159.769 185.29 164.807L146.114 161.625C148.102 152.345 152.013 144.324 157.847 137.562C163.68 130.735 171.204 125.498 180.418 121.852C189.698 118.14 200.437 116.284 212.634 116.284C221.118 116.284 229.239 117.278 236.994 119.267C244.816 121.256 251.743 124.338 257.776 128.514C263.874 132.69 268.68 138.06 272.193 144.622C275.706 151.118 277.463 158.907 277.463 167.989V271H237.293V249.821H236.099C233.647 254.594 230.366 258.803 226.256 262.449C222.146 266.028 217.207 268.846 211.44 270.901C205.673 272.889 199.011 273.884 191.455 273.884ZM203.585 244.651C209.816 244.651 215.318 243.424 220.091 240.972C224.864 238.453 228.609 235.072 231.327 230.83C234.045 226.587 235.403 221.781 235.403 216.412V200.205C234.078 201.066 232.255 201.862 229.935 202.591C227.681 203.254 225.129 203.884 222.278 204.48C219.428 205.01 216.578 205.508 213.727 205.972C210.877 206.369 208.292 206.734 205.972 207.065C201 207.795 196.658 208.955 192.946 210.545C189.234 212.136 186.35 214.291 184.295 217.009C182.241 219.66 181.213 222.974 181.213 226.952C181.213 232.719 183.301 237.127 187.477 240.176C191.72 243.159 197.089 244.651 203.585 244.651ZM373.731 273.983C358.087 273.983 344.631 270.669 333.362 264.04C322.159 257.345 313.542 248.064 307.509 236.199C301.543 224.333 298.561 210.678 298.561 195.233C298.561 179.589 301.577 165.867 307.609 154.068C313.707 142.203 322.358 132.955 333.561 126.327C344.763 119.632 358.087 116.284 373.532 116.284C386.856 116.284 398.523 118.704 408.532 123.543C418.542 128.382 426.463 135.176 432.296 143.926C438.13 152.676 441.345 162.951 441.941 174.75H401.97C400.843 167.127 397.86 160.995 393.021 156.355C388.248 151.649 381.984 149.295 374.228 149.295C367.666 149.295 361.932 151.085 357.026 154.665C352.187 158.178 348.409 163.315 345.691 170.077C342.973 176.838 341.614 185.025 341.614 194.636C341.614 204.381 342.94 212.667 345.592 219.494C348.31 226.322 352.121 231.526 357.026 235.105C361.932 238.685 367.666 240.474 374.228 240.474C379.067 240.474 383.409 239.48 387.254 237.491C391.165 235.503 394.38 232.619 396.899 228.841C399.484 224.996 401.174 220.389 401.97 215.02H441.941C441.278 226.687 438.096 236.961 432.396 245.844C426.761 254.66 418.972 261.554 409.029 266.526C399.086 271.497 387.32 273.983 373.731 273.983ZM505.819 182.705V271H463.461V118.273H503.831V145.219H505.62C509.001 136.336 514.669 129.31 522.623 124.139C530.578 118.902 540.223 116.284 551.558 116.284C562.164 116.284 571.411 118.604 579.299 123.244C587.188 127.884 593.319 134.513 597.694 143.131C602.069 151.682 604.257 161.89 604.257 173.756V271H561.899V181.312C561.965 171.966 559.579 164.674 554.74 159.438C549.901 154.134 543.239 151.483 534.754 151.483C529.053 151.483 524.015 152.709 519.64 155.162C515.331 157.615 511.951 161.194 509.498 165.901C507.112 170.541 505.885 176.142 505.819 182.705ZM632.041 271V118.273H674.399V271H632.041ZM653.319 98.5852C647.022 98.5852 641.62 96.4972 637.112 92.321C632.671 88.0786 630.45 83.0076 630.45 77.1079C630.45 71.2746 632.671 66.2699 637.112 62.0938C641.62 57.8513 647.022 55.7301 653.319 55.7301C659.617 55.7301 664.986 57.8513 669.427 62.0938C673.935 66.2699 676.189 71.2746 676.189 77.1079C676.189 83.0076 673.935 88.0786 669.427 92.321C664.986 96.4972 659.617 98.5852 653.319 98.5852ZM803.653 328.273V246.54H802.361C800.372 250.782 797.555 254.991 793.909 259.168C790.329 263.277 785.656 266.691 779.889 269.409C774.188 272.127 767.228 273.486 759.008 273.486C747.408 273.486 736.901 270.503 727.488 264.537C718.142 258.505 710.718 249.655 705.216 237.989C699.78 226.256 697.062 211.871 697.062 194.835C697.062 177.335 699.88 162.785 705.514 151.185C711.149 139.518 718.639 130.801 727.986 125.034C737.399 119.201 747.706 116.284 758.909 116.284C767.46 116.284 774.586 117.742 780.287 120.659C786.054 123.509 790.694 127.089 794.207 131.398C797.787 135.64 800.505 139.816 802.361 143.926H804.15V118.273H845.912V328.273H803.653ZM772.432 239.778C779.259 239.778 785.026 237.922 789.733 234.21C794.506 230.432 798.151 225.162 800.67 218.401C803.256 211.639 804.548 203.718 804.548 194.636C804.548 185.555 803.289 177.667 800.77 170.972C798.251 164.277 794.605 159.106 789.832 155.46C785.059 151.814 779.259 149.991 772.432 149.991C765.471 149.991 759.605 151.881 754.832 155.659C750.059 159.437 746.447 164.674 743.994 171.369C741.542 178.064 740.315 185.82 740.315 194.636C740.315 203.519 741.542 211.374 743.994 218.202C746.513 224.963 750.126 230.266 754.832 234.111C759.605 237.889 765.471 239.778 772.432 239.778ZM972.258 205.972V118.273H1014.62V271H973.948V243.259H972.357C968.91 252.207 963.176 259.4 955.156 264.835C947.201 270.271 937.49 272.989 926.022 272.989C915.814 272.989 906.832 270.669 899.076 266.028C891.32 261.388 885.255 254.793 880.88 246.241C876.571 237.69 874.384 227.449 874.317 215.517V118.273H916.675V207.96C916.742 216.975 919.161 224.101 923.934 229.338C928.707 234.575 935.103 237.193 943.124 237.193C948.228 237.193 953.001 236.033 957.442 233.713C961.884 231.327 965.463 227.813 968.181 223.173C970.965 218.533 972.324 212.799 972.258 205.972ZM1112.5 273.983C1096.79 273.983 1083.27 270.801 1071.93 264.438C1060.66 258.008 1051.98 248.926 1045.88 237.193C1039.78 225.394 1036.73 211.44 1036.73 195.332C1036.73 179.622 1039.78 165.834 1045.88 153.969C1051.98 142.103 1060.56 132.856 1071.63 126.227C1082.77 119.598 1095.83 116.284 1110.81 116.284C1120.88 116.284 1130.26 117.908 1138.95 121.156C1147.7 124.338 1155.32 129.144 1161.82 135.574C1168.38 142.004 1173.48 150.091 1177.13 159.835C1180.78 169.513 1182.6 180.848 1182.6 193.841V205.474H1053.64V179.224H1142.73C1142.73 173.126 1141.4 167.723 1138.75 163.017C1136.1 158.311 1132.42 154.632 1127.71 151.98C1123.07 149.262 1117.67 147.903 1111.51 147.903C1105.08 147.903 1099.37 149.395 1094.4 152.378C1089.5 155.295 1085.65 159.239 1082.87 164.21C1080.08 169.116 1078.66 174.584 1078.59 180.616V205.574C1078.59 213.131 1079.99 219.66 1082.77 225.162C1085.62 230.664 1089.63 234.906 1094.8 237.889C1099.97 240.872 1106.1 242.364 1113.2 242.364C1117.9 242.364 1122.21 241.701 1126.12 240.375C1130.03 239.049 1133.38 237.061 1136.16 234.409C1138.95 231.758 1141.07 228.509 1142.53 224.665L1181.7 227.25C1179.72 236.663 1175.64 244.883 1169.47 251.909C1163.38 258.869 1155.49 264.305 1145.81 268.216C1136.2 272.061 1125.09 273.983 1112.5 273.983Z" fill="#15808D"/>
<rect x="1.77859" y="83.7944" width="51.1363" height="96.0474" fill="url(#paint0_linear_1220_4409)"/>
<path d="M121.054 117.357L120.498 160.029L1.7787 160.029L56.5837 116.517L121.054 117.357Z" fill="url(#paint1_linear_1220_4409)"/>
<path d="M3.0846 159.832H54.2211C54.2211 159.832 46.7111 198.427 66.4493 211.413C88.4962 225.917 120.999 220 120.999 220V271C120.999 271 51.5642 277.89 22.8723 243.206C-5.81972 208.523 3.0846 159.832 3.0846 159.832Z" fill="url(#paint2_linear_1220_4409)"/>
<rect y="50" width="54.249" height="54.249" rx="27.1245" fill="url(#paint3_linear_1220_4409)"/>
<defs>
<linearGradient id="paint0_linear_1220_4409" x1="27.3468" y1="83.7944" x2="27.3468" y2="179.842" gradientUnits="userSpaceOnUse">
<stop stop-color="#178F9D"/>
<stop offset="1" stop-color="#44BFD1"/>
</linearGradient>
<linearGradient id="paint1_linear_1220_4409" x1="120.776" y1="138.693" x2="56.3056" y2="137.853" gradientUnits="userSpaceOnUse">
<stop stop-color="#0E7783"/>
<stop offset="1" stop-color="#44BFD1"/>
</linearGradient>
<linearGradient id="paint2_linear_1220_4409" x1="61.1626" y1="207.856" x2="30.4808" y2="250.099" gradientUnits="userSpaceOnUse">
<stop stop-color="#0E7783"/>
<stop offset="1" stop-color="#44BFD1"/>
</linearGradient>
<linearGradient id="paint3_linear_1220_4409" x1="27.1245" y1="50" x2="27.1245" y2="104.249" gradientUnits="userSpaceOnUse">
<stop stop-color="#178F9D"/>
<stop offset="1" stop-color="#44BFD1"/>
</linearGradient>
</defs>
</svg>
